<svg width="800" height="800" viewBox="0 0 800 800" fill="none" xmlns="http://www.w3.org/2000/svg">
  <rect width="800" height="800" rx="48" fill="#0F172A"/>
  <rect x="90" y="92" width="620" height="616" rx="36" fill="url(#bg)"/>
  <rect x="160" y="160" width="220" height="220" rx="28" fill="#38BDF8" fill-opacity="0.95"/>
  <rect x="420" y="160" width="220" height="220" rx="28" fill="#818CF8" fill-opacity="0.95"/>
  <rect x="160" y="420" width="480" height="220" rx="28" fill="#22C55E" fill-opacity="0.9"/>
  <rect x="184" y="184" width="172" height="172" rx="24" fill="#E0F2FE" fill-opacity="0.92"/>
  <rect x="444" y="184" width="172" height="172" rx="24" fill="#F5F3FF" fill-opacity="0.92"/>
  <path d="M248 484C284 430 346 392 420 392C492 392 550 430 586 484" stroke="#F8FAFC" stroke-width="22" stroke-linecap="round"/>
  <circle cx="260" cy="260" r="18" fill="#0F172A"/>
  <circle cx="540" cy="260" r="18" fill="#0F172A"/>
  <path d="M300 270C326 312 354 332 388 332C422 332 452 312 476 270" stroke="#0F172A" stroke-width="16" stroke-linecap="round"/>
  <defs>
    <linearGradient id="bg" x1="90" y1="92" x2="710" y2="708" gradientUnits="userSpaceOnUse">
      <stop stop-color="#1E293B"/>
      <stop offset="1" stop-color="#111827"/>
    </linearGradient>
  </defs>
</svg>